<?xml version="1.0" encoding="iso-8859-1"?>
<!-- Uploaded to: SVG Repo, www.svgrepo.com, Generator: SVG Repo Mixer Tools -->
<svg fill="#000000" height="800px" width="800px" version="1.1" id="Layer_1" xmlns="http://www.w3.org/2000/svg" xmlns:xlink="http://www.w3.org/1999/xlink" 
	 viewBox="0 0 512 512" xml:space="preserve">
<g>
	<g>
		<g>
			<path d="M256,0C114.617,0,0,114.617,0,256s114.617,256,256,256s256-114.617,256-256S397.383,0,256,0z M256,494.933
				C124.043,494.933,17.067,387.957,17.067,256S124.043,17.067,256,17.067S494.933,124.043,494.933,256S387.957,494.933,256,494.933
				z"/>
			<path d="M398.172,172.795c-19.608-17.261-48.829-21.831-70.992-12.093c6.429-17.219,22.638-31.617,39.938-32.719
				c4.703-0.3,8.273-4.356,7.973-9.059c-0.3-4.703-4.356-8.273-9.059-7.973c-32.716,2.086-60.837,35.591-58.721,68.792
				c0.484,7.587,9.898,10.802,14.921,5.096c14.604-16.59,45.737-15.893,64.663,0.767c3.537,3.114,8.93,2.771,12.044-0.767
				C402.053,181.301,401.709,175.909,398.172,172.795z"/>
			<path d="M196.267,145.067c0-23.563-19.104-42.667-42.667-42.667c-23.563,0-42.667,19.104-42.667,42.667
				c0,23.563,19.104,42.667,42.667,42.667C177.163,187.733,196.267,168.63,196.267,145.067z M128,145.067
				c0-14.137,11.463-25.6,25.6-25.6c14.137,0,25.6,11.463,25.6,25.6c0,14.137-11.463,25.6-25.6,25.6
				C139.463,170.667,128,159.204,128,145.067z"/>
			<path d="M362.677,299.816c-4.078-2.362-9.299-0.971-11.661,3.107C331.148,337.221,295.775,358.4,256,358.4
				c-25.793,0-49.729-8.915-68.792-24.529c-0.201-0.178-0.408-0.344-0.62-0.5c-10.072-8.373-18.759-18.631-25.604-30.448
				c-2.362-4.078-7.583-5.469-11.661-3.107c-4.078,2.362-5.469,7.583-3.107,11.661c6.336,10.938,14.065,20.722,22.899,29.159
				l-15.696,15.696c-19.989,19.989-19.989,52.408-0.002,72.406c20.001,19.991,52.419,19.991,72.409,0.002l56.432-56.019
				c35.014-7.412,65.123-29.477,83.524-61.243C368.146,307.399,366.755,302.178,362.677,299.816z M213.781,416.649
				c-13.347,13.347-34.962,13.347-48.295,0.021c-13.323-13.33-13.323-34.945,0.002-48.27l16.783-16.783
				c20.812,15.101,46.031,23.686,73.009,23.837L213.781,416.649z"/>
		</g>
	</g>
</g>
</svg>